<svg width="38" height="38" viewBox="0 0 38 38" fill="none" xmlns="http://www.w3.org/2000/svg">
<path d="M18.9684 0C13.9564 0.0605685 9.16681 2.08179 5.62257 5.63194C2.07833 9.18209 0.0604677 13.9797 0 19C0.0604677 24.0203 2.07833 28.8179 5.62257 32.3681C9.16681 35.9182 13.9564 37.9394 18.9684 38C23.9803 37.9394 28.77 35.9182 32.3142 32.3681C35.8584 28.8179 37.8763 24.0203 37.9368 19C37.8763 13.9797 35.8584 9.18209 32.3142 5.63194C28.77 2.08179 23.9803 0.0605685 18.9684 0ZM29.8075 20.3571H20.3233V29.8571H17.6135V20.3571H8.12931V17.6429H17.6135V8.14286H20.3233V17.6429H29.8075V20.3571Z" fill="#1B85E8"/>
</svg>
